<svg id="visual" viewBox="0 0 960 300" width="960" height="300" xmlns="http://www.w3.org/2000/svg" xmlns:xlink="http://www.w3.org/1999/xlink" version="1.1"><rect x="0" y="0" width="960" height="300" fill="#ffffff"></rect><path d="M0 177L17.8 178.7C35.7 180.3 71.3 183.7 106.8 183.3C142.3 183 177.7 179 213.2 178.3C248.7 177.7 284.3 180.3 320 181.2C355.7 182 391.3 181 426.8 184C462.3 187 497.7 194 533.2 192.8C568.7 191.7 604.3 182.3 640 182.5C675.7 182.7 711.3 192.3 746.8 196.2C782.3 200 817.7 198 853.2 193.3C888.7 188.7 924.3 181.3 942.2 177.7L960 174L960 301L942.2 301C924.3 301 888.7 301 853.2 301C817.7 301 782.3 301 746.8 301C711.3 301 675.7 301 640 301C604.3 301 568.7 301 533.2 301C497.7 301 462.3 301 426.8 301C391.3 301 355.7 301 320 301C284.3 301 248.7 301 213.2 301C177.7 301 142.3 301 106.8 301C71.3 301 35.7 301 17.8 301L0 301Z" fill="#54c1fb"></path><path d="M0 228L17.8 227.5C35.7 227 71.3 226 106.8 226C142.3 226 177.7 227 213.2 222.8C248.7 218.7 284.3 209.3 320 207.2C355.7 205 391.3 210 426.8 211.5C462.3 213 497.7 211 533.2 210C568.7 209 604.3 209 640 207.2C675.7 205.3 711.3 201.7 746.8 199.2C782.3 196.7 817.7 195.3 853.2 195.8C888.7 196.3 924.3 198.7 942.2 199.8L960 201L960 301L942.2 301C924.3 301 888.7 301 853.2 301C817.7 301 782.3 301 746.8 301C711.3 301 675.7 301 640 301C604.3 301 568.7 301 533.2 301C497.7 301 462.3 301 426.8 301C391.3 301 355.7 301 320 301C284.3 301 248.7 301 213.2 301C177.7 301 142.3 301 106.8 301C71.3 301 35.7 301 17.8 301L0 301Z" fill="#34b3fe"></path><path d="M0 238L17.8 237.5C35.7 237 71.3 236 106.8 233C142.3 230 177.7 225 213.2 226.3C248.7 227.7 284.3 235.3 320 236.3C355.7 237.3 391.3 231.7 426.8 231.5C462.3 231.3 497.7 236.7 533.2 238.5C568.7 240.3 604.3 238.7 640 239C675.7 239.3 711.3 241.7 746.8 243.2C782.3 244.7 817.7 245.3 853.2 246C888.7 246.7 924.3 247.3 942.2 247.7L960 248L960 301L942.2 301C924.3 301 888.7 301 853.2 301C817.7 301 782.3 301 746.8 301C711.3 301 675.7 301 640 301C604.3 301 568.7 301 533.2 301C497.7 301 462.3 301 426.8 301C391.3 301 355.7 301 320 301C284.3 301 248.7 301 213.2 301C177.7 301 142.3 301 106.8 301C71.3 301 35.7 301 17.8 301L0 301Z" fill="#1aa3ff"></path><path d="M0 234L17.8 233.3C35.7 232.7 71.3 231.3 106.8 232.5C142.3 233.7 177.7 237.3 213.2 242.2C248.7 247 284.3 253 320 253.5C355.7 254 391.3 249 426.8 249.2C462.3 249.3 497.7 254.7 533.2 254.8C568.7 255 604.3 250 640 245.8C675.7 241.7 711.3 238.3 746.8 240.3C782.3 242.3 817.7 249.7 853.2 253C888.7 256.3 924.3 255.7 942.2 255.3L960 255L960 301L942.2 301C924.3 301 888.7 301 853.2 301C817.7 301 782.3 301 746.8 301C711.3 301 675.7 301 640 301C604.3 301 568.7 301 533.2 301C497.7 301 462.3 301 426.8 301C391.3 301 355.7 301 320 301C284.3 301 248.7 301 213.2 301C177.7 301 142.3 301 106.8 301C71.3 301 35.7 301 17.8 301L0 301Z" fill="#2092fe"></path><path d="M0 267L17.8 264.7C35.7 262.3 71.3 257.7 106.8 256.3C142.3 255 177.7 257 213.2 257.5C248.7 258 284.3 257 320 258.8C355.7 260.7 391.3 265.3 426.8 266.5C462.3 267.7 497.7 265.3 533.2 263.7C568.7 262 604.3 261 640 261.7C675.7 262.3 711.3 264.7 746.8 263.2C782.3 261.7 817.7 256.3 853.2 256.7C888.7 257 924.3 263 942.2 266L960 269L960 301L942.2 301C924.3 301 888.7 301 853.2 301C817.7 301 782.3 301 746.8 301C711.3 301 675.7 301 640 301C604.3 301 568.7 301 533.2 301C497.7 301 462.3 301 426.8 301C391.3 301 355.7 301 320 301C284.3 301 248.7 301 213.2 301C177.7 301 142.3 301 106.8 301C71.3 301 35.7 301 17.8 301L0 301Z" fill="#3b80f9"></path><path d="M0 274L17.8 276.2C35.7 278.3 71.3 282.7 106.8 284.8C142.3 287 177.7 287 213.2 286.7C248.7 286.3 284.3 285.7 320 284.2C355.7 282.7 391.3 280.3 426.8 279.5C462.3 278.7 497.7 279.3 533.2 279.7C568.7 280 604.3 280 640 278.8C675.7 277.7 711.3 275.3 746.8 273.5C782.3 271.7 817.7 270.3 853.2 271.3C888.7 272.3 924.3 275.7 942.2 277.3L960 279L960 301L942.2 301C924.3 301 888.7 301 853.2 301C817.7 301 782.3 301 746.8 301C711.3 301 675.7 301 640 301C604.3 301 568.7 301 533.2 301C497.7 301 462.3 301 426.8 301C391.3 301 355.7 301 320 301C284.3 301 248.7 301 213.2 301C177.7 301 142.3 301 106.8 301C71.3 301 35.7 301 17.8 301L0 301Z" fill="#576bf0"></path></svg>