<svg id="visual" viewBox="0 0 960 300" width="960" height="300" xmlns="http://www.w3.org/2000/svg"
    xmlns:xlink="http://www.w3.org/1999/xlink" version="1.1">
    <rect x="0" y="0" width="960" height="300" fill="#6D17F9"></rect>
    <path
        d="M0 193L22.8 197.2C45.7 201.3 91.3 209.7 137 216.5C182.7 223.3 228.3 228.7 274 233.5C319.7 238.3 365.3 242.7 411.2 244.5C457 246.3 503 245.7 548.8 238.7C594.7 231.7 640.3 218.3 686 210.3C731.7 202.3 777.3 199.7 823 202.7C868.7 205.7 914.3 214.3 937.2 218.7L960 223L960 301L937.2 301C914.3 301 868.7 301 823 301C777.3 301 731.7 301 686 301C640.3 301 594.7 301 548.8 301C503 301 457 301 411.2 301C365.3 301 319.7 301 274 301C228.3 301 182.7 301 137 301C91.3 301 45.7 301 22.8 301L0 301Z"
        fill="#54C1FB" stroke-linecap="round" stroke-linejoin="miter"></path>
</svg>