<svg id="visual" viewBox="0 0 960 300" width="960" height="300" xmlns="http://www.w3.org/2000/svg" xmlns:xlink="http://www.w3.org/1999/xlink" version="1.1"><rect x="0" y="0" width="960" height="300" fill="#ffffff"></rect><path d="M0 80L22.8 84.8C45.7 89.7 91.3 99.3 137 95.2C182.7 91 228.3 73 274 68.7C319.7 64.3 365.3 73.7 411.2 75.3C457 77 503 71 548.8 73.8C594.7 76.7 640.3 88.3 686 86.5C731.7 84.7 777.3 69.3 823 64.8C868.7 60.3 914.3 66.7 937.2 69.8L960 73L960 0L937.2 0C914.3 0 868.7 0 823 0C777.3 0 731.7 0 686 0C640.3 0 594.7 0 548.8 0C503 0 457 0 411.2 0C365.3 0 319.7 0 274 0C228.3 0 182.7 0 137 0C91.3 0 45.7 0 22.8 0L0 0Z" fill="#54C1FB" stroke-linecap="round" stroke-linejoin="miter"></path></svg>