<svg id="visual" viewBox="0 0 960 300" width="960" height="300" xmlns="http://www.w3.org/2000/svg" xmlns:xlink="http://www.w3.org/1999/xlink" version="1.1"><path d="M0 249L22.8 250.2C45.7 251.3 91.3 253.7 137 247.7C182.7 241.7 228.3 227.3 274 224.8C319.7 222.3 365.3 231.7 411.2 235.3C457 239 503 237 548.8 230.3C594.7 223.7 640.3 212.3 686 209.3C731.7 206.3 777.3 211.7 823 217C868.7 222.3 914.3 227.7 937.2 230.3L960 233L960 301L937.2 301C914.3 301 868.7 301 823 301C777.3 301 731.7 301 686 301C640.3 301 594.7 301 548.8 301C503 301 457 301 411.2 301C365.3 301 319.7 301 274 301C228.3 301 182.7 301 137 301C91.3 301 45.7 301 22.8 301L0 301Z" fill="#54C1FB" stroke-linecap="round" stroke-linejoin="miter"></path></svg>