<svg id="visual" viewBox="0 0 960 300" width="960" height="300" xmlns="http://www.w3.org/2000/svg" xmlns:xlink="http://www.w3.org/1999/xlink" version="1.1"><path d="M0 188L22.8 196.7C45.7 205.3 91.3 222.7 137 234.3C182.7 246 228.3 252 274 245.3C319.7 238.7 365.3 219.3 411.2 213.8C457 208.3 503 216.7 548.8 224C594.7 231.3 640.3 237.7 686 243C731.7 248.3 777.3 252.7 823 247.7C868.7 242.7 914.3 228.3 937.2 221.2L960 214L960 301L937.2 301C914.3 301 868.7 301 823 301C777.3 301 731.7 301 686 301C640.3 301 594.7 301 548.8 301C503 301 457 301 411.2 301C365.3 301 319.7 301 274 301C228.3 301 182.7 301 137 301C91.3 301 45.7 301 22.8 301L0 301Z" fill="#6D17F9" stroke-linecap="round" stroke-linejoin="miter"></path></svg>