<svg id="visual" viewBox="0 0 960 300" width="960" height="300" xmlns="http://www.w3.org/2000/svg" xmlns:xlink="http://www.w3.org/1999/xlink" version="1.1"><path d="M0 49L14.5 49C29 49 58 49 87.2 50.3C116.3 51.7 145.7 54.3 174.8 54.3C204 54.3 233 51.7 262 50.5C291 49.3 320 49.7 349 52C378 54.3 407 58.7 436.2 59.3C465.3 60 494.7 57 523.8 57.2C553 57.3 582 60.7 611 60.5C640 60.3 669 56.7 698 56.8C727 57 756 61 785.2 60C814.3 59 843.7 53 872.8 50.2C902 47.3 931 47.7 945.5 47.8L960 48L960 0L945.5 0C931 0 902 0 872.8 0C843.7 0 814.3 0 785.2 0C756 0 727 0 698 0C669 0 640 0 611 0C582 0 553 0 523.8 0C494.7 0 465.3 0 436.2 0C407 0 378 0 349 0C320 0 291 0 262 0C233 0 204 0 174.8 0C145.7 0 116.3 0 87.2 0C58 0 29 0 14.5 0L0 0Z" fill="#54c1fb"></path><path d="M0 43L14.5 42.3C29 41.7 58 40.3 87.2 39.2C116.3 38 145.7 37 174.8 38.2C204 39.3 233 42.7 262 44.2C291 45.7 320 45.3 349 44.7C378 44 407 43 436.2 42.7C465.3 42.3 494.7 42.7 523.8 41.7C553 40.7 582 38.3 611 36.2C640 34 669 32 698 32.3C727 32.7 756 35.3 785.2 37.3C814.3 39.3 843.7 40.7 872.8 39.3C902 38 931 34 945.5 32L960 30L960 0L945.5 0C931 0 902 0 872.8 0C843.7 0 814.3 0 785.2 0C756 0 727 0 698 0C669 0 640 0 611 0C582 0 553 0 523.8 0C494.7 0 465.3 0 436.2 0C407 0 378 0 349 0C320 0 291 0 262 0C233 0 204 0 174.8 0C145.7 0 116.3 0 87.2 0C58 0 29 0 14.5 0L0 0Z" fill="#2d9fff"></path><path d="M0 26L14.5 25C29 24 58 22 87.2 20.3C116.3 18.7 145.7 17.3 174.8 17.7C204 18 233 20 262 20.2C291 20.3 320 18.7 349 18.3C378 18 407 19 436.2 20.5C465.3 22 494.7 24 523.8 23.8C553 23.7 582 21.3 611 19.7C640 18 669 17 698 16.5C727 16 756 16 785.2 17.7C814.3 19.3 843.7 22.7 872.8 23.7C902 24.7 931 23.3 945.5 22.7L960 22L960 0L945.5 0C931 0 902 0 872.8 0C843.7 0 814.3 0 785.2 0C756 0 727 0 698 0C669 0 640 0 611 0C582 0 553 0 523.8 0C494.7 0 465.3 0 436.2 0C407 0 378 0 349 0C320 0 291 0 262 0C233 0 204 0 174.8 0C145.7 0 116.3 0 87.2 0C58 0 29 0 14.5 0L0 0Z" fill="#6d71f9"></path></svg>